<?xml version="1.0" standalone="no"?>
<!DOCTYPE svg PUBLIC "-//W3C//DTD SVG 20010904//EN"
 "http://www.w3.org/TR/2001/REC-SVG-20010904/DTD/svg10.dtd">
<svg version="1.0" xmlns="http://www.w3.org/2000/svg"
 width="586.000000pt" height="178.000000pt" viewBox="0 0 586.000000 178.000000"
 preserveAspectRatio="xMidYMid meet">

<g transform="translate(0.000000,178.000000) scale(0.100000,-0.100000)"
fill="#000000" stroke="none">
<path d="M3528 1341 c-161 -52 -249 -156 -249 -296 0 -52 5 -75 27 -115 47
-86 129 -133 324 -185 72 -19 144 -42 160 -50 67 -35 75 -100 16 -136 -25 -16
-45 -19 -112 -17 -69 3 -86 7 -121 31 -25 17 -48 44 -59 70 -10 23 -20 44 -22
47 -2 3 -56 5 -119 5 l-115 0 6 -44 c20 -144 130 -260 290 -306 82 -24 248
-17 327 14 126 48 199 150 199 276 -1 162 -90 240 -360 315 -195 53 -232 79
-196 135 20 30 41 41 100 55 83 18 171 -20 196 -86 9 -23 12 -24 125 -24 131
0 129 -2 99 87 -52 154 -192 244 -378 242 -49 0 -103 -7 -138 -18z"/>
<path d="M329 1233 l-102 -108 171 -3 172 -2 0 -390 0 -390 114 0 c82 0 115 4
119 13 2 6 3 182 2 390 l-2 377 173 0 174 0 0 110 0 110 -359 0 -359 0 -103
-107z"/>
<path d="M1840 840 l0 -500 370 0 370 0 0 115 0 115 -255 0 -256 0 3 83 3 82
213 3 212 2 0 105 0 105 -212 2 -213 3 -3 83 -3 82 256 0 255 0 0 110 0 110
-370 0 -370 0 0 -500z"/>
<path d="M4680 1230 l0 -110 175 0 175 0 2 -387 3 -388 115 0 115 0 3 388 2
387 63 0 63 0 54 58 c30 31 77 81 105 110 l49 52 -462 0 -462 0 0 -110z"/>
</g>
</svg>
